<svg xmlns="http://www.w3.org/2000/svg" width="1300" height="900" viewBox="0 0 1300 900" role="img" aria-labelledby="title desc"><title id="title">Integer array: values are inline</title><desc id="desc">Thirty-two cells in four rows show eight integers, 1 through 8, inside the heap array.</desc><defs><marker id="a" viewBox="0 0 10 10" refX="9" refY="5" markerWidth="7" markerHeight="7" orient="auto"><path d="M0 1L9 5L0 9Z" fill="#4a6d88"/></marker><style>text{font-family:system-ui,'Segoe UI',sans-serif;fill:#203d55}.code{font-family:Consolas,monospace}.arrow{fill:none;stroke:#4a6d88;stroke-width:3;marker-end:url(#a)}</style></defs><rect width="1300" height="900" rx="18" fill="#f7fafb"/><text x="55" y="65" font-size="31" font-weight="600">Integer array: values are inline</text><rect x="620" y="110" width="625" height="255" rx="12" fill="#eaf8f0" stroke="#95b3c6"/><rect x="620" y="365" width="625" height="430" rx="12" fill="#edf6fb" stroke="#95b3c6"/><text x="925" y="153" text-anchor="middle" font-size="29">Stack</text><text x="645" y="196" font-size="23">Main</text><text x="1155" y="407" text-anchor="middle" font-size="29">Heap</text><text x="55" y="260" font-size="25" class="code">int[] nums =</text><text x="55" y="300" font-size="25" class="code">    {1,2,3,4,5,6,7,8};</text><text x="55" y="455" font-size="24" class="code">internal class Info</text><text x="55" y="495" font-size="24" class="code">{</text><text x="80" y="535" font-size="24" class="code">public int Id;</text><text x="80" y="575" font-size="24" class="code">public double Value;</text><text x="80" y="615" font-size="24" class="code">public DateTime Date;</text><text x="80" y="655" font-size="24" class="code">public string Name;</text><text x="55" y="695" font-size="24" class="code">}</text><text x="435" y="325" font-size="23" class="">0x015D</text><path class="arrow" d="M540 317H635"/><text x="645" y="325" font-size="23" class="">nums 0x001513ec</text><path class="arrow" d="M790 339C625 365 575 392 643 444"/><text x="648" y="443" font-size="22" class="">0x001513ec</text><rect class="memory-cell" x="825" y="430" width="35" height="35" fill="#d6e9dd" stroke="#95b3c6"/><text x="836" y="455" font-size="22" class="code">0</text><rect class="memory-cell" x="860" y="430" width="35" height="35" fill="#d6e9dd" stroke="#95b3c6"/><text x="871" y="455" font-size="22" class="code">0</text><rect class="memory-cell" x="895" y="430" width="35" height="35" fill="#d6e9dd" stroke="#95b3c6"/><text x="906" y="455" font-size="22" class="code">0</text><rect class="memory-cell" x="930" y="430" width="35" height="35" fill="#d6e9dd" stroke="#95b3c6"/><text x="941" y="455" font-size="22" class="code">1</text><rect class="memory-cell" x="965" y="430" width="35" height="35" fill="#f4e6b7" stroke="#95b3c6"/><text x="976" y="455" font-size="22" class="code">0</text><rect class="memory-cell" x="1000" y="430" width="35" height="35" fill="#f4e6b7" stroke="#95b3c6"/><text x="1011" y="455" font-size="22" class="code">0</text><rect class="memory-cell" x="1035" y="430" width="35" height="35" fill="#f4e6b7" stroke="#95b3c6"/><text x="1046" y="455" font-size="22" class="code">0</text><rect class="memory-cell" x="1070" y="430" width="35" height="35" fill="#f4e6b7" stroke="#95b3c6"/><text x="1081" y="455" font-size="22" class="code">2</text><rect class="memory-cell" x="825" y="465" width="35" height="35" fill="#dceaf3" stroke="#95b3c6"/><text x="836" y="490" font-size="22" class="code">0</text><rect class="memory-cell" x="860" y="465" width="35" height="35" fill="#dceaf3" stroke="#95b3c6"/><text x="871" y="490" font-size="22" class="code">0</text><rect class="memory-cell" x="895" y="465" width="35" height="35" fill="#dceaf3" stroke="#95b3c6"/><text x="906" y="490" font-size="22" class="code">0</text><rect class="memory-cell" x="930" y="465" width="35" height="35" fill="#dceaf3" stroke="#95b3c6"/><text x="941" y="490" font-size="22" class="code">3</text><rect class="memory-cell" x="965" y="465" width="35" height="35" fill="#f4d9cd" stroke="#95b3c6"/><text x="976" y="490" font-size="22" class="code">0</text><rect class="memory-cell" x="1000" y="465" width="35" height="35" fill="#f4d9cd" stroke="#95b3c6"/><text x="1011" y="490" font-size="22" class="code">0</text><rect class="memory-cell" x="1035" y="465" width="35" height="35" fill="#f4d9cd" stroke="#95b3c6"/><text x="1046" y="490" font-size="22" class="code">0</text><rect class="memory-cell" x="1070" y="465" width="35" height="35" fill="#f4d9cd" stroke="#95b3c6"/><text x="1081" y="490" font-size="22" class="code">4</text><rect class="memory-cell" x="825" y="500" width="35" height="35" fill="#d6e9dd" stroke="#95b3c6"/><text x="836" y="525" font-size="22" class="code">0</text><rect class="memory-cell" x="860" y="500" width="35" height="35" fill="#d6e9dd" stroke="#95b3c6"/><text x="871" y="525" font-size="22" class="code">0</text><rect class="memory-cell" x="895" y="500" width="35" height="35" fill="#d6e9dd" stroke="#95b3c6"/><text x="906" y="525" font-size="22" class="code">0</text><rect class="memory-cell" x="930" y="500" width="35" height="35" fill="#d6e9dd" stroke="#95b3c6"/><text x="941" y="525" font-size="22" class="code">5</text><rect class="memory-cell" x="965" y="500" width="35" height="35" fill="#f4e6b7" stroke="#95b3c6"/><text x="976" y="525" font-size="22" class="code">0</text><rect class="memory-cell" x="1000" y="500" width="35" height="35" fill="#f4e6b7" stroke="#95b3c6"/><text x="1011" y="525" font-size="22" class="code">0</text><rect class="memory-cell" x="1035" y="500" width="35" height="35" fill="#f4e6b7" stroke="#95b3c6"/><text x="1046" y="525" font-size="22" class="code">0</text><rect class="memory-cell" x="1070" y="500" width="35" height="35" fill="#f4e6b7" stroke="#95b3c6"/><text x="1081" y="525" font-size="22" class="code">6</text><rect class="memory-cell" x="825" y="535" width="35" height="35" fill="#dceaf3" stroke="#95b3c6"/><text x="836" y="560" font-size="22" class="code">0</text><rect class="memory-cell" x="860" y="535" width="35" height="35" fill="#dceaf3" stroke="#95b3c6"/><text x="871" y="560" font-size="22" class="code">0</text><rect class="memory-cell" x="895" y="535" width="35" height="35" fill="#dceaf3" stroke="#95b3c6"/><text x="906" y="560" font-size="22" class="code">0</text><rect class="memory-cell" x="930" y="535" width="35" height="35" fill="#dceaf3" stroke="#95b3c6"/><text x="941" y="560" font-size="22" class="code">7</text><rect class="memory-cell" x="965" y="535" width="35" height="35" fill="#f4d9cd" stroke="#95b3c6"/><text x="976" y="560" font-size="22" class="code">0</text><rect class="memory-cell" x="1000" y="535" width="35" height="35" fill="#f4d9cd" stroke="#95b3c6"/><text x="1011" y="560" font-size="22" class="code">0</text><rect class="memory-cell" x="1035" y="535" width="35" height="35" fill="#f4d9cd" stroke="#95b3c6"/><text x="1046" y="560" font-size="22" class="code">0</text><rect class="memory-cell" x="1070" y="535" width="35" height="35" fill="#f4d9cd" stroke="#95b3c6"/><text x="1081" y="560" font-size="22" class="code">8</text><text x="55" y="848" font-size="20" class="">Conceptual cells and illustrative addresses; these are not physical byte dumps.</text></svg>
